<?xml version="1.0" encoding="UTF-8" standalone="no"?>
<!-- Created with Inkscape (http://www.inkscape.org/) -->

<svg
   width="210mm"
   height="297mm"
   viewBox="0 0 210 297"
   version="1.1"
   id="svg5"
   sodipodi:docname="Kassi.svg"
   inkscape:version="1.2.1 (9c6d41e410, 2022-07-14)"
   xmlns:inkscape="http://www.inkscape.org/namespaces/inkscape"
   xmlns:sodipodi="http://sodipodi.sourceforge.net/DTD/sodipodi-0.dtd"
   xmlns="http://www.w3.org/2000/svg"
   xmlns:svg="http://www.w3.org/2000/svg">
  <sodipodi:namedview
     id="namedview7"
     pagecolor="#ffffff"
     bordercolor="#000000"
     borderopacity="0.25"
     inkscape:showpageshadow="2"
     inkscape:pageopacity="0.0"
     inkscape:pagecheckerboard="0"
     inkscape:deskcolor="#d1d1d1"
     inkscape:document-units="mm"
     showgrid="false"
     inkscape:zoom="0.45254834"
     inkscape:cx="835.26989"
     inkscape:cy="686.11455"
     inkscape:window-width="1920"
     inkscape:window-height="991"
     inkscape:window-x="-9"
     inkscape:window-y="-9"
     inkscape:window-maximized="1"
     inkscape:current-layer="layer1" />
  <defs
     id="defs2">
    <inkscape:path-effect
       effect="spiro"
       id="path-effect2014"
       is_visible="true"
       lpeversion="1" />
    <inkscape:path-effect
       effect="spiro"
       id="path-effect2010"
       is_visible="true"
       lpeversion="1" />
    <inkscape:path-effect
       effect="spiro"
       id="path-effect2006"
       is_visible="true"
       lpeversion="1" />
    <inkscape:path-effect
       effect="spiro"
       id="path-effect2002"
       is_visible="true"
       lpeversion="1" />
    <inkscape:path-effect
       effect="spiro"
       id="path-effect1992"
       is_visible="true"
       lpeversion="1" />
    <inkscape:path-effect
       effect="spiro"
       id="path-effect1988"
       is_visible="true"
       lpeversion="1" />
    <inkscape:path-effect
       effect="spiro"
       id="path-effect1897"
       is_visible="true"
       lpeversion="1" />
    <inkscape:path-effect
       effect="spiro"
       id="path-effect1893"
       is_visible="true"
       lpeversion="1" />
    <inkscape:path-effect
       effect="spiro"
       id="path-effect1889"
       is_visible="true"
       lpeversion="1" />
    <inkscape:path-effect
       effect="spiro"
       id="path-effect1885"
       is_visible="true"
       lpeversion="1" />
  </defs>
  <g
     inkscape:label="Layer 1"
     inkscape:groupmode="layer"
     id="layer1">
    <g
       id="panel987">
      <path
         style="fill:none;stroke:#000000;stroke-width:1"
         d="M 76.4 200.9 L 103.767 200.9 L 103.767 197.8 L 120.967 197.8 L 120.967 200.9 L 148.233 200.9 L 148.233 197.8 L 165.433 197.8 L 165.433 200.9 L 192.8 200.9"
         id="path897" />
      <path
         style="fill:none;stroke:#000000;stroke-width:1"
         d="M 192.8 200.9 L 192.8 222.6 L 189.7 222.6 L 189.7 239.4 L 192.8 239.4 L 192.8 261.1"
         id="path899" />
      <path
         style="fill:none;stroke:#000000;stroke-width:1"
         d="M 192.8 261.1 L 165.433 261.1 L 165.433 264.2 L 148.233 264.2 L 148.233 261.1 L 120.967 261.1 L 120.967 264.2 L 103.767 264.2 L 103.767 261.1 L 76.4 261.1"
         id="path901" />
      <path
         style="fill:none;stroke:#000000;stroke-width:1"
         d="M 76.4 261.1 L 76.4 239.4 L 79.5 239.4 L 79.5 222.6 L 76.4 222.6 L 76.4 200.9"
         id="path903" />
    </g>
    <g
       id="panel9815">
      <path
         style="fill:none;stroke:#000000;stroke-width:1"
         d="M 8.1 79.5 L 29.6 79.5 L 29.6 76.4 L 46.8 76.4 L 46.8 79.5 L 68.3 79.5"
         id="path906" />
      <path
         style="fill:none;stroke:#000000;stroke-width:1"
         d="M 68.3 79.5 L 68.3 103.767 L 71.4 103.767 L 71.4 120.967 L 68.3 120.967 L 68.3 148.233 L 71.4 148.233 L 71.4 165.433 L 68.3 165.433 L 68.3 189.7"
         id="path908" />
      <path
         style="fill:none;stroke:#000000;stroke-width:1"
         d="M 68.3 189.7 L 46.8 189.7 L 46.8 192.8 L 29.6 192.8 L 29.6 189.7 L 8.1 189.7"
         id="path910" />
      <path
         style="fill:none;stroke:#000000;stroke-width:1"
         d="M 8.1 189.7 L 8.1 165.433 L 5 165.433 L 5 148.233 L 8.1 148.233 L 8.1 120.967 L 5 120.967 L 5 103.767 L 8.1 103.767 L 8.1 79.5"
         id="path912" />
    </g>
    <g
       id="panel1749">
      <path
         style="fill:none;stroke:#000000;stroke-width:1"
         d="M 76.4 76.4 L 103.967 76.4 L 103.967 79.5 L 120.767 79.5 L 120.767 76.4 L 148.433 76.4 L 148.433 79.5 L 165.233 79.5 L 165.233 76.4 L 192.8 76.4"
         id="path915" />
      <path
         style="fill:none;stroke:#000000;stroke-width:1"
         d="M 192.8 76.4 L 192.8 103.967 L 189.7 103.967 L 189.7 120.767 L 192.8 120.767 L 192.8 148.433 L 189.7 148.433 L 189.7 165.233 L 192.8 165.233 L 192.8 192.8"
         id="path917" />
      <path
         style="fill:none;stroke:#000000;stroke-width:1"
         d="M 192.8 192.8 L 165.233 192.8 L 165.233 189.7 L 148.433 189.7 L 148.433 192.8 L 120.767 192.8 L 120.767 189.7 L 103.967 189.7 L 103.967 192.8 L 76.4 192.8"
         id="path919" />
      <path
         style="fill:none;stroke:#000000;stroke-width:1"
         d="M 76.4 192.8 L 76.4 165.233 L 79.5 165.233 L 79.5 148.433 L 76.4 148.433 L 76.4 120.767 L 79.5 120.767 L 79.5 103.967 L 76.4 103.967 L 76.4 76.4"
         id="path921" />
    </g>
    <g
       id="panel1600">
      <path
         style="fill:none;stroke:#000000;stroke-width:1"
         d="M 200.9 79.5 L 222.4 79.5 L 222.4 76.4 L 239.6 76.4 L 239.6 79.5 L 261.1 79.5"
         id="path924" />
      <path
         style="fill:none;stroke:#000000;stroke-width:1"
         d="M 261.1 79.5 L 261.1 103.767 L 264.2 103.767 L 264.2 120.967 L 261.1 120.967 L 261.1 148.233 L 264.2 148.233 L 264.2 165.433 L 261.1 165.433 L 261.1 189.7"
         id="path926" />
      <path
         style="fill:none;stroke:#000000;stroke-width:1"
         d="M 261.1 189.7 L 239.6 189.7 L 239.6 192.8 L 222.4 192.8 L 222.4 189.7 L 200.9 189.7"
         id="path928" />
      <path
         style="fill:none;stroke:#000000;stroke-width:1"
         d="M 200.9 189.7 L 200.9 165.433 L 197.8 165.433 L 197.8 148.233 L 200.9 148.233 L 200.9 120.967 L 197.8 120.967 L 197.8 103.767 L 200.9 103.767 L 200.9 79.5"
         id="path930" />
    </g>
    <g
       id="panel9212">
      <path
         style="fill:none;stroke:#000000;stroke-width:1"
         d="M 269.2 76.4 L 296.767 76.4 L 296.767 79.5 L 313.567 79.5 L 313.567 76.4 L 341.233 76.4 L 341.233 79.5 L 358.033 79.5 L 358.033 76.4 L 385.6 76.4"
         id="path933" />
      <path
         style="fill:none;stroke:#000000;stroke-width:1"
         d="m 385.6,76.4 v 27.567 h -3.1 v 16.8 h 7.8625 c 13.45295,8.82632 14.6485,18.01316 0,27.666 H 382.5 v 16.8 h 3.1 V 192.8"
         id="path935"
         sodipodi:nodetypes="cccccccccc" />
      <path
         style="fill:none;stroke:#000000;stroke-width:1"
         d="M 385.6 192.8 L 358.033 192.8 L 358.033 189.7 L 341.233 189.7 L 341.233 192.8 L 313.567 192.8 L 313.567 189.7 L 296.767 189.7 L 296.767 192.8 L 269.2 192.8"
         id="path937" />
      <path
         style="fill:none;stroke:#000000;stroke-width:1"
         d="M 269.2 192.8 L 269.2 165.233 L 272.3 165.233 L 272.3 148.433 L 269.2 148.433 L 269.2 120.767 L 272.3 120.767 L 272.3 103.967 L 269.2 103.967 L 269.2 76.4"
         id="path939" />
    </g>
    <g
       id="panel6437">
      <path
         style="fill:none;stroke:#000000;stroke-width:1"
         d="M 76.4 8.1 L 103.767 8.1 L 103.767 5 L 120.967 5 L 120.967 8.1 L 148.233 8.1 L 148.233 5 L 165.433 5 L 165.433 8.1 L 192.8 8.1"
         id="path942" />
      <path
         style="fill:none;stroke:#000000;stroke-width:1"
         d="M 192.8 8.1 L 192.8 29.8 L 189.7 29.8 L 189.7 46.6 L 192.8 46.6 L 192.8 68.3"
         id="path944" />
      <path
         style="fill:none;stroke:#000000;stroke-width:1"
         d="M 192.8 68.3 L 165.433 68.3 L 165.433 71.4 L 148.233 71.4 L 148.233 68.3 L 120.967 68.3 L 120.967 71.4 L 103.767 71.4 L 103.767 68.3 L 76.4 68.3"
         id="path946" />
      <path
         style="fill:none;stroke:#000000;stroke-width:1"
         d="M 76.4 68.3 L 76.4 46.6 L 79.5 46.6 L 79.5 29.8 L 76.4 29.8 L 76.4 8.1"
         id="path948" />
    </g>
    <circle
       style="fill:none;stroke:#000000;stroke-width:0.299676;stroke-dasharray:none"
       id="path1089"
       cx="300.70959"
       cy="108.117"
       r="12.350163" />
    <circle
       style="fill:none;stroke:#000000;stroke-width:0.299676;stroke-dasharray:none"
       id="circle1994"
       cx="354.08276"
       cy="108.117"
       r="12.350163" />
    <circle
       style="fill:none;stroke:#000000;stroke-width:0.299676;stroke-dasharray:none"
       id="circle1996"
       cx="300.70959"
       cy="161"
       r="12.350163" />
    <circle
       style="fill:none;stroke:#000000;stroke-width:0.299676;stroke-dasharray:none"
       id="circle1998"
       cx="354.08276"
       cy="161"
       r="12.350163" />
    <rect
       style="fill:none;stroke:#000000;stroke-width:0.287635;stroke-dasharray:none"
       id="rect2068"
       width="19.712364"
       height="12.712365"
       x="95.143814"
       y="45.59668"
       rx="0.36781532"
       ry="0.89972985" />
    <rect
       style="fill:none;stroke:#000000;stroke-width:0.104636;stroke-dasharray:none"
       id="rect2072"
       width="2.8953645"
       height="2.8953643"
       x="150.59641"
       y="45.50518"
       rx="1.4476823"
       ry="1.4476821" />
    <rect
       style="fill:none;stroke:#000000;stroke-width:0.104636;stroke-dasharray:none"
       id="rect2074"
       width="2.8953645"
       height="2.8953643"
       x="150.59641"
       y="49.00518"
       rx="1.4476823"
       ry="1.4476821" />
    <rect
       style="fill:none;stroke:#000000;stroke-width:0.104636;stroke-dasharray:none"
       id="rect2076"
       width="2.8953645"
       height="2.8953643"
       x="154.39664"
       y="45.50518"
       rx="1.4476823"
       ry="1.4476821" />
    <rect
       style="fill:none;stroke:#000000;stroke-width:0.104636;stroke-dasharray:none"
       id="rect2078"
       width="2.8953645"
       height="2.8953643"
       x="154.39664"
       y="49.00518"
       rx="1.4476823"
       ry="1.4476821" />
    <rect
       style="fill:none;stroke:#000000;stroke-width:0.104636;stroke-dasharray:none"
       id="rect2080"
       width="2.8953645"
       height="2.8953643"
       x="150.59641"
       y="52.521004"
       rx="1.4476823"
       ry="1.4476821" />
    <rect
       style="fill:none;stroke:#000000;stroke-width:0.104636;stroke-dasharray:none"
       id="rect2082"
       width="2.8953645"
       height="2.8953643"
       x="150.59641"
       y="56.021004"
       rx="1.4476823"
       ry="1.4476821" />
    <rect
       style="fill:none;stroke:#000000;stroke-width:0.104636;stroke-dasharray:none"
       id="rect2084"
       width="2.8953645"
       height="2.8953643"
       x="154.39664"
       y="52.521004"
       rx="1.4476823"
       ry="1.4476821" />
    <rect
       style="fill:none;stroke:#000000;stroke-width:0.104636;stroke-dasharray:none"
       id="rect2086"
       width="2.8953645"
       height="2.8953643"
       x="154.39664"
       y="56.021004"
       rx="1.4476823"
       ry="1.4476821" />
    <rect
       style="fill:none;stroke:#000000;stroke-width:0.104636;stroke-dasharray:none"
       id="rect2088"
       width="2.8953645"
       height="2.8953643"
       x="158.19687"
       y="45.50518"
       rx="1.4476823"
       ry="1.4476821" />
    <rect
       style="fill:none;stroke:#000000;stroke-width:0.104636;stroke-dasharray:none"
       id="rect2090"
       width="2.8953645"
       height="2.8953643"
       x="158.19687"
       y="49.00518"
       rx="1.4476823"
       ry="1.4476821" />
    <rect
       style="fill:none;stroke:#000000;stroke-width:0.104636;stroke-dasharray:none"
       id="rect2092"
       width="2.8953645"
       height="2.8953643"
       x="161.9971"
       y="45.50518"
       rx="1.4476823"
       ry="1.4476821" />
    <rect
       style="fill:none;stroke:#000000;stroke-width:0.104636;stroke-dasharray:none"
       id="rect2094"
       width="2.8953645"
       height="2.8953643"
       x="161.9971"
       y="49.00518"
       rx="1.4476823"
       ry="1.4476821" />
    <rect
       style="fill:none;stroke:#000000;stroke-width:0.104636;stroke-dasharray:none"
       id="rect2096"
       width="2.8953645"
       height="2.8953643"
       x="158.19687"
       y="52.521004"
       rx="1.4476823"
       ry="1.4476821" />
    <rect
       style="fill:none;stroke:#000000;stroke-width:0.104636;stroke-dasharray:none"
       id="rect2098"
       width="2.8953645"
       height="2.8953643"
       x="158.19687"
       y="56.021004"
       rx="1.4476823"
       ry="1.4476821" />
    <rect
       style="fill:none;stroke:#000000;stroke-width:0.104636;stroke-dasharray:none"
       id="rect2100"
       width="2.8953645"
       height="2.8953643"
       x="161.9971"
       y="52.521004"
       rx="1.4476823"
       ry="1.4476821" />
    <rect
       style="fill:none;stroke:#000000;stroke-width:0.104636;stroke-dasharray:none"
       id="rect2102"
       width="2.8953645"
       height="2.8953643"
       x="161.9971"
       y="56.021004"
       rx="1.4476823"
       ry="1.4476821" />
    <rect
       style="fill:none;stroke:#000000;stroke-width:0.104636;stroke-dasharray:none"
       id="rect2104"
       width="2.8953645"
       height="2.8953643"
       x="165.57811"
       y="45.50518"
       rx="1.4476823"
       ry="1.4476821" />
    <rect
       style="fill:none;stroke:#000000;stroke-width:0.104636;stroke-dasharray:none"
       id="rect2106"
       width="2.8953645"
       height="2.8953643"
       x="165.57811"
       y="49.00518"
       rx="1.4476823"
       ry="1.4476821" />
    <rect
       style="fill:none;stroke:#000000;stroke-width:0.104636;stroke-dasharray:none"
       id="rect2108"
       width="2.8953645"
       height="2.8953643"
       x="169.37834"
       y="45.50518"
       rx="1.4476823"
       ry="1.4476821" />
    <rect
       style="fill:none;stroke:#000000;stroke-width:0.104636;stroke-dasharray:none"
       id="rect2110"
       width="2.8953645"
       height="2.8953643"
       x="169.37834"
       y="49.00518"
       rx="1.4476823"
       ry="1.4476821" />
    <rect
       style="fill:none;stroke:#000000;stroke-width:0.104636;stroke-dasharray:none"
       id="rect2112"
       width="2.8953645"
       height="2.8953643"
       x="165.57811"
       y="52.521004"
       rx="1.4476823"
       ry="1.4476821" />
    <rect
       style="fill:none;stroke:#000000;stroke-width:0.104636;stroke-dasharray:none"
       id="rect2114"
       width="2.8953645"
       height="2.8953643"
       x="165.57811"
       y="56.021004"
       rx="1.4476823"
       ry="1.4476821" />
    <rect
       style="fill:none;stroke:#000000;stroke-width:0.104636;stroke-dasharray:none"
       id="rect2116"
       width="2.8953645"
       height="2.8953643"
       x="169.37834"
       y="52.521004"
       rx="1.4476823"
       ry="1.4476821" />
    <rect
       style="fill:none;stroke:#000000;stroke-width:0.104636;stroke-dasharray:none"
       id="rect2118"
       width="2.8953645"
       height="2.8953643"
       x="169.37834"
       y="56.021004"
       rx="1.4476823"
       ry="1.4476821" />
    <rect
       style="fill:none;stroke:#000000;stroke-width:0.104636;stroke-dasharray:none"
       id="rect2120"
       width="2.8953645"
       height="2.8953643"
       x="173.17857"
       y="45.50518"
       rx="1.4476823"
       ry="1.4476821" />
    <rect
       style="fill:none;stroke:#000000;stroke-width:0.104636;stroke-dasharray:none"
       id="rect2122"
       width="2.8953645"
       height="2.8953643"
       x="173.17857"
       y="49.00518"
       rx="1.4476823"
       ry="1.4476821" />
    <rect
       style="fill:none;stroke:#000000;stroke-width:0.104636;stroke-dasharray:none"
       id="rect2124"
       width="2.8953645"
       height="2.8953643"
       x="176.97881"
       y="45.50518"
       rx="1.4476823"
       ry="1.4476821" />
    <rect
       style="fill:none;stroke:#000000;stroke-width:0.104636;stroke-dasharray:none"
       id="rect2126"
       width="2.8953645"
       height="2.8953643"
       x="176.97881"
       y="49.00518"
       rx="1.4476823"
       ry="1.4476821" />
    <rect
       style="fill:none;stroke:#000000;stroke-width:0.104636;stroke-dasharray:none"
       id="rect2128"
       width="2.8953645"
       height="2.8953643"
       x="173.17857"
       y="52.521004"
       rx="1.4476823"
       ry="1.4476821" />
    <rect
       style="fill:none;stroke:#000000;stroke-width:0.104636;stroke-dasharray:none"
       id="rect2130"
       width="2.8953645"
       height="2.8953643"
       x="173.17857"
       y="56.021004"
       rx="1.4476823"
       ry="1.4476821" />
    <rect
       style="fill:none;stroke:#000000;stroke-width:0.104636;stroke-dasharray:none"
       id="rect2132"
       width="2.8953645"
       height="2.8953643"
       x="176.97881"
       y="52.521004"
       rx="1.4476823"
       ry="1.4476821" />
    <rect
       style="fill:none;stroke:#000000;stroke-width:0.104636;stroke-dasharray:none"
       id="rect2134"
       width="2.8953645"
       height="2.8953643"
       x="176.97881"
       y="56.021004"
       rx="1.4476823"
       ry="1.4476821" />
    <path
       id="path186"
       style="fill:#000080;stroke:#000000;stroke-width:0.188328"
       d="m 100.6085,94.934388 0.39062,77.557092 21.66009,-25.3202 V 94.934388 Z m 65.56667,14.261232 -65.31301,64.8168 67.67397,-63.19641 z m -37.87049,44.79388 -26.17523,20.27611 h 53.479 V 153.9895 Z" />
    <g
       aria-label="L"
       id="text2561"
       style="font-size:3.175px;fill:none;stroke:#000000;stroke-width:0.3">
      <path
         d="m 280.35713,86.236183 h -1.46037 v -2.308386 h 0.30696 v 2.035535 h 1.15341 z"
         id="path2879" />
    </g>
    <g
       aria-label="L"
       id="text2565"
       style="font-size:3.175px;fill:none;stroke:#000000;stroke-width:0.3">
      <path
         d="M 207.01038,85.970245 H 205.55 v -2.308386 h 0.30696 v 2.035535 h 1.15342 z"
         id="path2876" />
    </g>
    <g
       aria-label="L"
       id="text2573"
       style="font-size:3.175px;fill:none;stroke:#000000;stroke-width:0.3">
      <path
         d="m 187.45803,207.85838 h -1.46038 V 205.55 h 0.30696 v 2.03553 h 1.15342 z"
         id="path2873" />
    </g>
    <g
       aria-label="L"
       id="text2627"
       style="font-size:3.175px;fill:none;stroke:#000000;stroke-width:0.3">
      <path
         d="m 63.650001,185.84627 h -1.460376 v -2.30839 h 0.306958 v 2.03554 h 1.153418 z"
         id="path2870" />
    </g>
    <g
       aria-label="L"
       id="text2631"
       style="font-size:3.175px;fill:none;stroke:#000000;stroke-width:0.3">
      <path
         d="m 82.720493,63.650002 h -1.460376 v -2.308387 h 0.306958 v 2.035535 h 1.153418 z"
         id="path2867" />
    </g>
  </g>
</svg>
