<?xml version="1.0" encoding="UTF-8" standalone="no"?>
<!-- Created with Inkscape (http://www.inkscape.org/) -->

<svg
   width="210mm"
   height="297mm"
   viewBox="0 0 210 297"
   version="1.1"
   id="svg5"
   inkscape:version="1.2.1 (9c6d41e410, 2022-07-14)"
   sodipodi:docname="Logo.svg"
   xmlns:inkscape="http://www.inkscape.org/namespaces/inkscape"
   xmlns:sodipodi="http://sodipodi.sourceforge.net/DTD/sodipodi-0.dtd"
   xmlns="http://www.w3.org/2000/svg"
   xmlns:svg="http://www.w3.org/2000/svg">
  <sodipodi:namedview
     id="namedview7"
     pagecolor="#ffffff"
     bordercolor="#000000"
     borderopacity="0.25"
     inkscape:showpageshadow="2"
     inkscape:pageopacity="0.0"
     inkscape:pagecheckerboard="0"
     inkscape:deskcolor="#d1d1d1"
     inkscape:document-units="mm"
     showgrid="false"
     inkscape:zoom="10.099009"
     inkscape:cx="192.98924"
     inkscape:cy="149.17306"
     inkscape:window-width="1920"
     inkscape:window-height="991"
     inkscape:window-x="-9"
     inkscape:window-y="-9"
     inkscape:window-maximized="1"
     inkscape:current-layer="layer1" />
  <defs
     id="defs2">
    <inkscape:path-effect
       effect="spiro"
       id="path-effect357"
       is_visible="true"
       lpeversion="1" />
    <inkscape:path-effect
       effect="spiro"
       id="path-effect353"
       is_visible="true"
       lpeversion="1" />
  </defs>
  <g
     inkscape:label="Layer 1"
     inkscape:groupmode="layer"
     id="layer1">
    <path
       id="path186"
       style="fill:#000080;stroke:#000000;stroke-width:0.0527735"
       d="m 33.32652,16.326387 0.109461,21.73315 6.069621,-7.09526 v -14.63789 z m 18.373181,3.9963 -18.302105,18.16305 18.963695,-17.70898 z m -10.61212,12.5522 -7.334857,5.6818 h 14.985962 v -5.6818 z" />
    <rect
       style="fill:#ffffff;stroke-width:0.264583"
       id="rect295"
       width="59.874249"
       height="16.005987"
       x="37.940117"
       y="227.0479" />
    <rect
       style="fill:none;stroke:#ff0000;stroke-width:0.230612"
       id="rect1242"
       width="85"
       height="55"
       x="30.115307"
       y="13.115306"
       ry="3.5"
       rx="3.5" />
    <rect
       style="fill:none;stroke:#ff8080;stroke-width:0.264583"
       id="rect1298"
       width="24.626965"
       height="24.627047"
       x="32.13229"
       y="15.132292"
       rx="0.60000002"
       ry="0.60000002" />
    <g
       aria-label="Lúkas Hlöðversson"
       id="text1510"
       style="font-size:3.175px;fill:none;stroke:#782121;stroke-width:0.264583">
      <path
         style="color:#000000;fill:#782121;stroke:none;-inkscape-stroke:none"
         d="m 32,41.289062 v 2.574219 h 1.724609 v -0.132812 -0.404297 h -1.152343 v -2.03711 z m 0.263672,0.265625 h 0.04297 v 2.035157 h 1.154296 v 0.0078 h -1.197265 z"
         id="path1562" />
      <path
         style="color:#000000;fill:#782121;stroke:none;-inkscape-stroke:none"
         d="m 34.59375,41 -0.404297,0.84375 h 0.509766 L 35.314453,41 h -0.259766 z m 0.167969,0.263672 h 0.0332 l -0.09766,0.132812 z m -1.029297,0.603515 v 1.25586 c 0,0.23575 0.05586,0.435204 0.185547,0.578125 0.127927,0.139676 0.314727,0.208984 0.523437,0.208984 0.125319,0 0.243294,-0.02444 0.351563,-0.07422 0.03166,-0.01456 0.06388,-0.04246 0.0957,-0.06055 v 0.08789 h 0.554687 v -0.132812 -1.863282 h -0.554687 v 1.351563 c -0.0548,0.03819 -0.110518,0.07476 -0.171875,0.101562 -0.07623,0.03368 -0.140867,0.04883 -0.19336,0.04883 -0.07399,0 -0.123392,-0.01242 -0.138671,-0.01953 -0.02041,-0.0095 -0.03457,-0.02242 -0.05078,-0.04883 -0.01552,-0.02612 -0.02893,-0.06069 -0.03516,-0.107422 -0.0072,-0.05519 -0.01172,-0.125284 -0.01172,-0.208984 v -1.117188 z m 0.263672,0.263672 h 0.02734 v 0.853516 c 0,0.092 0.0044,0.173242 0.01367,0.244141 0.0102,0.07652 0.03245,0.148321 0.07031,0.210937 0.03668,0.05977 0.09243,0.106254 0.154297,0.138672 -0.0462,-0.02034 -0.114744,-0.0179 -0.148438,-0.05469 -0.07288,-0.08032 -0.117187,-0.206193 -0.117187,-0.40039 z m 1.15625,0 h 0.02734 v 1.466797 h -0.02734 v -0.242187 -0.08984 z m -0.847657,1.464844 c 0.06304,0.02355 0.13017,0.03454 0.208985,0.03516 -0.02529,0.003 -0.04486,0.01563 -0.07227,0.01563 -0.06455,0 -0.08962,-0.03652 -0.136719,-0.05078 z"
         id="path1564" />
      <path
         style="color:#000000;fill:#782121;stroke:none;-inkscape-stroke:none"
         d="m 35.765625,41.185547 v 2.677734 h 0.556641 v -0.654297 l 0.04883,-0.04687 0.644531,0.701172 h 0.744141 l -0.205079,-0.222656 -0.777343,-0.837891 0.941406,-0.935547 h -0.744141 l -0.652343,0.671875 v -1.353515 z m 0.263672,0.265625 h 0.02734 v 1.644531 0.0957 0.40625 h -0.02734 z m 0.396484,1.361328 0.728516,0.785156 h -0.02344 l -0.71289,-0.777344 z"
         id="path1566" />
      <path
         style="color:#000000;fill:#782121;stroke:none;-inkscape-stroke:none"
         d="m 38.357422,41.824219 c -0.112244,0 -0.227221,0.01142 -0.341797,0.03125 -0.109706,0.01899 -0.193512,0.0352 -0.257813,0.05273 l -0.09766,0.02734 v 0.529297 h 0.171875 l 0.02344,-0.0098 c 0.09442,-0.03602 0.18505,-0.06204 0.271484,-0.08008 0.08671,-0.01906 0.163955,-0.0293 0.228516,-0.0293 0.05726,0 0.110884,0.0044 0.162109,0.01172 0.04467,0.0064 0.07761,0.01747 0.101563,0.03125 v 0.002 c 0.02319,0.01325 0.03734,0.0269 0.04883,0.04883 v 0.002 c 0.0026,0.0047 0.0016,0.01891 0.0039,0.02539 -0.116913,0.0077 -0.235314,0.01347 -0.341797,0.02539 -0.157958,0.01768 -0.298913,0.05208 -0.419922,0.105469 -0.122517,0.05459 -0.225063,0.133185 -0.296875,0.236328 v 0.002 c -0.07494,0.108243 -0.107422,0.24257 -0.107422,0.392579 0,0.190069 0.07184,0.36334 0.205078,0.490234 0.131455,0.125194 0.303016,0.191406 0.488282,0.191406 0.09335,0 0.176791,-0.0091 0.253906,-0.0293 0.06816,-0.01691 0.132467,-0.03693 0.189453,-0.06445 l 0.0039,-0.002 c 0.01414,-0.0065 0.027,-0.01792 0.04102,-0.02539 v 0.07422 h 0.554687 v -0.132812 -1.175782 c 0,-0.125094 -0.01831,-0.236222 -0.0625,-0.333984 -0.04283,-0.09474 -0.108258,-0.175621 -0.191406,-0.236328 -0.08213,-0.06032 -0.177441,-0.101936 -0.283203,-0.125 h -0.002 c -0.102216,-0.02333 -0.216992,-0.03516 -0.345703,-0.03516 z m 0.253906,0.289062 c 0.0095,0.0018 0.02426,0.0018 0.0332,0.0039 h 0.002 c 0.03331,0.0072 0.05427,0.02392 0.08203,0.03516 -0.036,-0.01823 -0.07665,-0.02938 -0.117188,-0.03906 z m -0.550781,0.002 c 0.0033,-5.67e-4 0.0065,5.49e-4 0.0098,0 -0.04803,0.01008 -0.09748,0.03051 -0.146484,0.04492 v -0.01563 c 0.04326,-0.0093 0.07475,-0.01857 0.136719,-0.0293 z m 0.695312,0.04883 c 0.0243,0.01168 0.05574,0.0182 0.07617,0.0332 0.04708,0.03437 0.08008,0.07665 0.105469,0.132812 0.02402,0.05313 0.04102,0.126463 0.04102,0.224609 v 1.042969 h -0.02539 v -0.228515 -0.06445 -0.0078 -0.583984 -0.03125 -0.140625 c 0,-0.082 -0.01536,-0.158325 -0.05273,-0.226563 -0.03316,-0.06215 -0.08385,-0.114532 -0.144532,-0.150391 z m -0.685547,0.66211 c -0.04221,0.02149 -0.08836,0.03778 -0.123046,0.06836 0.0253,-0.01741 0.03781,-0.04021 0.07031,-0.05469 0.0139,-0.0061 0.03769,-0.0081 0.05273,-0.01367 z m -0.148437,0.08984 c -0.07465,0.07628 -0.115234,0.182858 -0.115234,0.292968 0,0.125862 0.04424,0.246091 0.136718,0.324219 l 0.002,0.002 c 0.09155,0.07576 0.213709,0.09813 0.34961,0.09961 -0.03193,0.0037 -0.0568,0.01172 -0.0957,0.01172 -0.126859,0 -0.221054,-0.03763 -0.306641,-0.11914 -0.0838,-0.07981 -0.121094,-0.168503 -0.121094,-0.298828 0,-0.112507 0.02386,-0.1892 0.06055,-0.242188 0.02021,-0.02903 0.06052,-0.04656 0.08984,-0.07031 z m 0.765625,0.04883 v 0.265625 c -0.05091,0.03511 -0.102461,0.07022 -0.160156,0.09766 -0.06589,0.03023 -0.137975,0.04687 -0.222657,0.04687 -0.104184,0 -0.163348,-0.02383 -0.189453,-0.04492 h -0.002 c -0.02644,-0.02291 -0.04102,-0.0499 -0.04102,-0.121094 0,-0.06191 0.01358,-0.08874 0.03711,-0.111328 v -0.002 c 0.03356,-0.03289 0.07963,-0.05914 0.146484,-0.07813 0.05729,-0.01601 0.146771,-0.03111 0.261719,-0.04102 0.0657,-0.0056 0.113992,-0.0077 0.169922,-0.01172 z m -0.269531,0.65039 c -0.01077,0.0031 -0.01779,0.0069 -0.0293,0.0098 h -0.002 c -0.0097,0.0025 -0.02634,0.0018 -0.03711,0.0039 0.0239,-0.0013 0.045,-0.01045 0.06836,-0.01367 z"
         id="path1568" />
      <path
         style="color:#000000;fill:#782121;stroke:none;-inkscape-stroke:none"
         d="m 40.261719,41.824219 c -0.122128,0 -0.236824,0.017 -0.341797,0.05078 -0.101249,0.03199 -0.190233,0.07704 -0.263672,0.138672 -0.07281,0.06025 -0.131042,0.131111 -0.169922,0.21289 v 0.002 c -0.03683,0.08023 -0.05664,0.168604 -0.05664,0.257812 0,0.138142 0.04245,0.268248 0.125,0.371094 0.08962,0.10841 0.224789,0.176188 0.392579,0.220703 0.05847,0.01545 0.122598,0.03007 0.191406,0.04297 0.06614,0.01221 0.119544,0.02255 0.158203,0.03125 0.101916,0.02265 0.161628,0.05662 0.166016,0.06055 0.0076,0.0068 0.01563,0.01382 0.01563,0.05664 0,0.05299 -0.0041,0.059 -0.04102,0.08008 -0.04313,0.02465 -0.122395,0.04492 -0.236328,0.04492 -0.08557,0 -0.177556,-0.01725 -0.277344,-0.05273 h -0.002 C 39.82139,43.304748 39.7313,43.254268 39.650391,43.193359 l -0.03516,-0.02539 h -0.193359 v 0.541015 l 0.07422,0.03516 c 0.08204,0.04102 0.179026,0.07871 0.291015,0.111328 0.120591,0.03363 0.252154,0.04883 0.390625,0.04883 0.246076,0 0.455691,-0.0556 0.615235,-0.179688 0.157619,-0.121627 0.248047,-0.299407 0.248047,-0.49414 0,-0.151755 -0.04796,-0.291844 -0.146485,-0.394532 h -0.002 c -0.09542,-0.0981 -0.223871,-0.162207 -0.376953,-0.197265 -0.0474,-0.01103 -0.105315,-0.02251 -0.173828,-0.03516 -0.06468,-0.01213 -0.122247,-0.02326 -0.173828,-0.03516 -0.08625,-0.02019 -0.139659,-0.04867 -0.15625,-0.0625 h -0.002 c -0.01143,-0.0093 -0.01758,-0.01476 -0.01758,-0.05859 0,-0.04048 0.0022,-0.04402 0.04297,-0.06641 0.04955,-0.02791 0.11575,-0.04492 0.205078,-0.04492 0.08584,0 0.173817,0.01515 0.267578,0.04883 h 0.002 v 0.002 c 0.09643,0.0337 0.174653,0.07374 0.236328,0.11914 l 0.03516,0.02539 h 0.191406 v -0.525391 l -0.07227,-0.03711 c -0.08301,-0.04273 -0.179804,-0.07507 -0.292969,-0.101563 h -0.002 c -0.114489,-0.02791 -0.230009,-0.04297 -0.34375,-0.04297 z m 0.255859,0.296875 c 0.0086,0.0019 0.01672,0.0018 0.02539,0.0039 h 0.002 c 0.0049,0.0011 0.0069,0.0027 0.01172,0.0039 -0.01307,-0.0042 -0.02598,-0.0041 -0.03906,-0.0078 z m 0.117188,0.03516 c 0.0255,0.008 0.05071,0.01481 0.07227,0.02344 v 0.01367 c -0.0252,-0.01155 -0.04545,-0.02682 -0.07227,-0.03711 z m -0.75,0.03125 c -0.0851,0.06329 -0.15625,0.153973 -0.15625,0.259766 0,0.09791 0.03722,0.198553 0.113281,0.261718 4.32e-4,3.61e-4 0.0015,-3.58e-4 0.002,0 4.79e-4,3.95e-4 -4.82e-4,0.0016 0,0.002 0.0699,0.05753 0.156578,0.09017 0.263672,0.115235 0.05591,0.0129 0.117937,0.02443 0.185547,0.03711 0.06585,0.01215 0.120629,0.02355 0.162109,0.0332 0.117702,0.02696 0.196704,0.07026 0.248047,0.123047 0.04824,0.05027 0.07227,0.11051 0.07227,0.210938 0,0.121526 -0.03964,0.204213 -0.144532,0.285156 -0.0074,0.0058 -0.02528,0.0044 -0.0332,0.0098 0.07737,-0.06722 0.144531,-0.152335 0.144531,-0.25586 0,-0.0936 -0.03059,-0.190402 -0.101562,-0.253906 -0.07373,-0.06597 -0.164884,-0.09428 -0.285156,-0.121094 h -0.002 c -0.04378,-0.0098 -0.09856,-0.02074 -0.166016,-0.0332 -0.06349,-0.0119 -0.120793,-0.02557 -0.171875,-0.03906 -0.136068,-0.0361 -0.217319,-0.08619 -0.255859,-0.132813 -0.04279,-0.05392 -0.06445,-0.114665 -0.06445,-0.203125 10e-7,-0.05274 0.01074,-0.09923 0.03125,-0.144531 v -0.002 c 0.02107,-0.04382 0.05298,-0.08446 0.09961,-0.123047 0.01403,-0.01177 0.04104,-0.01859 0.05859,-0.0293 z M 39.6875,43.511719 c 0.04809,0.02461 0.09091,0.0571 0.142578,0.07617 -0.05583,-0.01727 -0.09948,-0.0347 -0.142578,-0.05273 z m 0.146484,0.07813 c 0.03703,0.01319 0.07264,0.01208 0.109375,0.02148 -0.02653,-0.0052 -0.05905,-0.0048 -0.08398,-0.01172 -0.01045,-0.003 -0.01534,-0.0067 -0.02539,-0.0098 z"
         id="path1570" />
      <path
         style="color:#000000;fill:#782121;stroke:none;-inkscape-stroke:none"
         d="m 42.332031,41.289062 v 2.574219 h 0.572266 v -1.130859 h 0.886719 v 1.130859 h 0.572265 v -0.132812 -2.441407 h -0.572265 v 0.90625 h -0.886719 v -0.90625 z m 0.265625,0.265625 h 0.04297 v 0.904297 h 1.416016 v -0.904297 h 0.04102 v 2.042969 h -0.04102 V 42.46875 h -1.416016 v 1.128906 h -0.04297 z"
         id="path1572" />
      <path
         style="color:#000000;fill:#782121;stroke:none;-inkscape-stroke:none"
         d="m 44.699219,41.185547 v 2.677734 h 0.554687 v -0.132812 -2.544922 z m 0.263672,0.265625 h 0.02734 v 2.146484 h -0.02734 z"
         id="path1574" />
      <path
         style="color:#000000;fill:#782121;stroke:none;-inkscape-stroke:none"
         d="m 45.769531,41.273437 v 0.56836 h 0.552735 c -0.247251,0.01459 -0.473292,0.09085 -0.628907,0.267578 -0.168618,0.191668 -0.25,0.451254 -0.25,0.755859 0,0.304606 0.08138,0.564193 0.25,0.75586 0.169268,0.19103 0.40925,0.289062 0.683594,0.289062 0.272527,0 0.510628,-0.09827 0.679688,-0.289062 0.169775,-0.191604 0.25,-0.451093 0.25,-0.75586 0,-0.304767 -0.08022,-0.564255 -0.25,-0.755859 -0.155359,-0.176443 -0.37944,-0.252898 -0.625,-0.267578 h 0.550781 v -0.132813 -0.435547 h -0.572266 v 0.558594 c -0.01308,-4.68e-4 -0.01996,-0.01367 -0.0332,-0.01367 -0.01327,0 -0.0201,0.01321 -0.0332,0.01367 v -0.123047 -0.435547 z m 0.265625,0.265625 h 0.04297 v 0.03711 h -0.04297 z m 0.638672,0 h 0.04492 v 0.03711 h -0.04492 z m -0.667969,0.699219 c -0.02904,0.02383 -0.07755,0.01498 -0.101562,0.04492 -0.114587,0.143235 -0.160156,0.340686 -0.160156,0.582031 0,0.23489 0.04697,0.43103 0.160156,0.576172 0.04605,0.05851 0.131884,0.05443 0.195312,0.08984 -0.06536,-0.03259 -0.157411,-0.02773 -0.208984,-0.08594 -0.118004,-0.134827 -0.181641,-0.321171 -0.181641,-0.580078 0,-0.2597 0.06294,-0.44515 0.181641,-0.580078 0.02842,-0.03227 0.08306,-0.0225 0.115234,-0.04687 z m 0.738282,0 c 0.03234,0.0245 0.08657,0.01432 0.115234,0.04687 0.119613,0.134992 0.183594,0.320539 0.183594,0.580078 0,0.25954 -0.06398,0.445088 -0.183594,0.580078 -0.04818,0.05437 -0.133745,0.04811 -0.193359,0.08008 0.05701,-0.03404 0.135356,-0.02868 0.177734,-0.08203 0.115159,-0.144618 0.162109,-0.341128 0.162109,-0.578125 0,-0.241548 -0.04426,-0.43887 -0.160156,-0.582031 -0.02411,-0.03006 -0.07243,-0.02099 -0.101562,-0.04492 z m -0.367188,0.0957 c 0.125107,0 0.197787,0.03551 0.261719,0.115235 0.05981,0.07388 0.103515,0.209013 0.103515,0.416015 10e-7,0.20122 -0.04286,0.33544 -0.105468,0.414063 -0.06428,0.08091 -0.136193,0.115234 -0.259766,0.115234 -0.125764,0 -0.199524,-0.03568 -0.263672,-0.117187 -0.06205,-0.08029 -0.103515,-0.213802 -0.103515,-0.41211 0,-0.207206 0.04252,-0.342209 0.101562,-0.416015 0.06361,-0.07933 0.138046,-0.115235 0.265625,-0.115235 z"
         id="path1576" />
      <path
         style="color:#000000;fill:#782121;stroke:none;-inkscape-stroke:none"
         d="m 48.832031,41.125 -0.359375,0.21875 c -0.02114,-0.01449 -0.03874,-0.02696 -0.0625,-0.04297 h -0.002 c -0.04962,-0.03444 -0.09182,-0.06475 -0.126953,-0.08984 l -0.03516,-0.02539 h -0.63086 v 0.238281 l 0.07227,0.03711 c 0.09456,0.04779 0.177979,0.0918 0.25,0.132813 v 0.002 c 0.0182,0.01011 0.04297,0.02871 0.0625,0.04102 l -0.310547,0.1875 0.251953,0.371093 0.421875,-0.259765 c 0.05325,0.05453 0.107248,0.107669 0.152344,0.179687 v 0.002 c 0.0025,0.0039 0.0034,0.0078 0.0059,0.01172 -0.08596,-0.02408 -0.175536,-0.04102 -0.279297,-0.04102 -0.237589,0 -0.452199,0.08322 -0.617187,0.242187 -0.168759,0.1626 -0.253906,0.390082 -0.253906,0.650391 0,0.278053 0.08268,0.516092 0.253906,0.683593 0.169706,0.164823 0.399436,0.246094 0.662109,0.246094 0.280553,0 0.527112,-0.108352 0.697266,-0.314453 0.172724,-0.209216 0.25,-0.499327 0.25,-0.853516 0,-0.243055 -0.04606,-0.467121 -0.140625,-0.669921 -0.06963,-0.150167 -0.182397,-0.279291 -0.294922,-0.408204 l 0.285156,-0.167968 z m -0.03125,0.986328 c 0.0138,0.02559 0.04054,0.04597 0.05273,0.07227 0.01024,0.02196 0.0067,0.05155 0.01563,0.07422 -0.01834,-0.04996 -0.04386,-0.09784 -0.06836,-0.146484 z m -0.558594,0.242188 c 0.0089,0 0.01292,0.0018 0.02148,0.002 -0.163951,0.0074 -0.317312,0.05574 -0.423828,0.166015 -0.113558,0.117612 -0.166016,0.279472 -0.166016,0.460938 0,0.205894 0.04843,0.381247 0.166016,0.503906 -0.0076,-0.0066 -0.02199,-0.0047 -0.0293,-0.01172 -0.114031,-0.111551 -0.175781,-0.265764 -0.175781,-0.49414 0,-0.206846 0.0594,-0.350687 0.173828,-0.460938 0.118198,-0.113885 0.253636,-0.166015 0.433593,-0.166015 z m 0.05273,0.255859 c 0.0776,0 0.152994,0.0096 0.226562,0.0293 h 0.002 c 0.05257,0.0133 0.101297,0.03818 0.150391,0.0625 7.4e-5,0.0019 -6.9e-5,0.004 0,0.0059 v 0.0039 0.002 c 0.0018,0.02407 0.002,0.05171 0.002,0.08203 0,0.147385 -0.0127,0.257184 -0.0332,0.324219 -0.02252,0.07275 -0.05352,0.12969 -0.0918,0.175781 -0.03303,0.03964 -0.06793,0.06342 -0.109375,0.07813 -0.04872,0.01757 -0.09883,0.02734 -0.152344,0.02734 -0.120966,0 -0.195877,-0.03231 -0.257812,-0.0957 -0.05515,-0.05712 -0.09375,-0.156809 -0.09375,-0.322265 0,-0.132727 0.03367,-0.215123 0.09375,-0.277344 0.06137,-0.06354 0.138142,-0.0957 0.263672,-0.0957 z m 0.640625,0.02344 0.01172,0.0098 c 0.0025,0.03589 0.02148,0.06216 0.02148,0.09961 0,0.06118 -0.03204,0.07849 -0.03711,0.132813 0.0011,-0.03 0.0098,-0.04768 0.0098,-0.08008 0,-0.03445 -0.0017,-0.06699 -0.0039,-0.09766 v -0.0039 c -7.5e-4,-0.01964 -7.73e-4,-0.04013 -0.002,-0.06055 z m -0.150391,0.771485 c -0.004,0.0051 -0.0018,0.01847 -0.0059,0.02344 -0.002,0.0024 -0.0058,0.0015 -0.0078,0.0039 0.006,-0.008 0.008,-0.01903 0.01367,-0.02734 z"
         id="path1578" />
      <path
         style="color:#000000;fill:#782121;stroke:none;-inkscape-stroke:none"
         d="m 49.179687,41.867187 0.802735,1.996094 h 0.472656 l 0.806641,-1.996094 h -0.195313 -0.396484 l -0.441406,1.144532 -0.445313,-1.144532 z m 0.390625,0.263672 h 0.03125 l 0.570313,1.466797 h -0.0098 z m 1.28125,0 h 0.01758 l -0.386719,0.957032 z"
         id="path1580" />
      <path
         style="color:#000000;fill:#782121;stroke:none;-inkscape-stroke:none"
         d="m 52.138672,41.818359 c -0.281278,0 -0.527615,0.09844 -0.707031,0.291016 v 0.002 c -0.179407,0.193855 -0.267578,0.456506 -0.267579,0.763672 0,0.311122 0.09293,0.573634 0.283204,0.757812 0.189531,0.182242 0.452557,0.269532 0.763671,0.269532 0.123579,0 0.243212,-0.01377 0.357422,-0.04492 0.107955,-0.02944 0.21484,-0.06579 0.31836,-0.109375 l 0.08008,-0.03516 v -0.53711 h -0.197266 l -0.03906,0.0332 c -0.02908,0.02611 -0.102458,0.07067 -0.214844,0.115235 -0.105041,0.0411 -0.206224,0.06055 -0.306641,0.06055 -0.07658,0 -0.143702,-0.01144 -0.203125,-0.03125 -0.05732,-0.01938 -0.102804,-0.04532 -0.142578,-0.08203 l -0.002,-0.002 c -0.03993,-0.03624 -0.07201,-0.08165 -0.09766,-0.144531 -0.01033,-0.02565 -0.0093,-0.0664 -0.01563,-0.09766 h 1.253906 v -0.132813 -0.158203 c 0,-0.272754 -0.07267,-0.503965 -0.226562,-0.669922 -0.153728,-0.166328 -0.377386,-0.248047 -0.636719,-0.248047 z m 0.433594,0.423828 c 0.0022,0.0023 0.0076,0.0015 0.0098,0.0039 0.07452,0.07997 0.09485,0.222249 0.115235,0.367187 -0.01084,-0.141748 -0.04198,-0.27399 -0.125,-0.371094 z m -0.939454,0.04492 c -0.0126,0.01498 -0.01228,0.0368 -0.02344,0.05273 0.0099,-0.01224 0.0049,-0.03726 0.01563,-0.04883 0.0021,-0.0022 0.0057,-0.0017 0.0078,-0.0039 z m 0.490235,0.03711 c 0.131217,0 0.202767,0.03179 0.248047,0.08203 0.0248,0.02716 0.02691,0.08931 0.04102,0.132812 h -0.621093 c 0.01886,-0.03725 0.02102,-0.08548 0.05273,-0.117187 0.06644,-0.06489 0.150312,-0.09766 0.279297,-0.09766 z m 0.59375,0.349609 c 0.0018,0.02683 0.01953,0.03335 0.01953,0.0625 v 0.02539 h -0.01758 z m -1.263672,0.130859 h 0.0078 v 0.08984 c 0,0.04918 0.01712,0.08895 0.02344,0.134766 -0.0101,-0.05947 -0.05469,-0.08331 -0.05469,-0.154297 0,-0.0312 0.0215,-0.04118 0.02344,-0.07031 z m 0.136719,0.523438 c 0.02912,0.0458 0.05067,0.0966 0.08984,0.132812 -0.01203,-0.01 -0.03756,-0.0067 -0.04883,-0.01758 -0.02682,-0.02596 -0.01942,-0.08481 -0.04102,-0.115234 z m 1.113281,0.191406 v 0.01172 c -0.01742,0.0066 -0.03518,0.01143 -0.05273,0.01758 0.02136,-0.009 0.03328,-0.02016 0.05273,-0.0293 z m -0.138672,0.06055 c -0.02172,0.0066 -0.04253,0.0155 -0.06445,0.02148 -0.04585,0.01251 -0.09787,0.01332 -0.146484,0.01953 0.07075,-0.01001 0.141073,-0.01687 0.210937,-0.04102 z"
         id="path1582" />
      <path
         style="color:#000000;fill:#782121;stroke:none;-inkscape-stroke:none"
         d="m 53.177734,41.867187 v 1.996094 h 0.556641 v -1.291015 c 0.05452,-0.03982 0.109412,-0.07892 0.166016,-0.105469 h 0.002 c 0.06704,-0.03228 0.132975,-0.04687 0.203125,-0.04687 0.0517,0 0.09433,0.0017 0.126953,0.0059 h 0.002 0.002 c 0.03504,0.0035 0.07131,0.01047 0.109375,0.01953 l 0.01563,0.0039 h 0.162109 v -0.132813 -0.412109 l -0.111328,-0.01758 c -0.04692,-0.0075 -0.08265,-0.01302 -0.111328,-0.01563 l 0.0059,0.002 c -0.03589,-0.0049 -0.07359,-0.0059 -0.126954,-0.0059 -0.110811,0 -0.221857,0.02422 -0.326171,0.07031 -0.03693,0.01619 -0.0806,0.05338 -0.119141,0.07617 v -0.146485 z m 0.265625,0.263672 h 0.02734 v 0.306641 0.09375 1.066406 h -0.02734 z m 0.736328,0 c 0.04181,0 0.06633,0.0026 0.08008,0.0039 v 0.0293 c -0.04661,-0.0057 -0.09656,-0.0098 -0.154297,-0.0098 -0.05659,0 -0.109248,0.02593 -0.164063,0.03906 0.0054,-0.0026 0.01434,-0.01141 0.01953,-0.01367 0.07345,-0.03245 0.145594,-0.04883 0.21875,-0.04883 z"
         id="path1584" />
      <path
         style="color:#000000;fill:#782121;stroke:none;-inkscape-stroke:none"
         d="m 55.255859,41.824219 c -0.122127,0 -0.23487,0.017 -0.339843,0.05078 -0.10198,0.03202 -0.19176,0.07668 -0.265625,0.138672 -0.07281,0.06025 -0.131043,0.131111 -0.169922,0.21289 v 0.002 c -0.03683,0.08023 -0.05469,0.168604 -0.05469,0.257812 0,0.138142 0.0405,0.268248 0.123047,0.371094 h 0.002 c 0.08962,0.108409 0.222836,0.176188 0.390625,0.220703 0.05847,0.01545 0.122598,0.03007 0.191406,0.04297 0.06614,0.01221 0.119545,0.02255 0.158204,0.03125 0.101914,0.02265 0.16358,0.05662 0.167968,0.06055 0.0076,0.0068 0.01367,0.01382 0.01367,0.05664 0,0.05299 -0.0041,0.059 -0.04102,0.08008 -0.04313,0.02465 -0.122395,0.04492 -0.236329,0.04492 -0.08557,0 -0.177555,-0.01725 -0.277343,-0.05273 h -0.002 c -0.100485,-0.03705 -0.190575,-0.08753 -0.271485,-0.148438 l -0.03516,-0.02539 h -0.191406 v 0.541015 l 0.07227,0.03516 c 0.08204,0.04102 0.179027,0.07871 0.291016,0.111328 0.12059,0.03363 0.252154,0.04883 0.390625,0.04883 0.246075,0 0.455691,-0.0556 0.615234,-0.179688 0.15762,-0.121627 0.248047,-0.299407 0.248047,-0.49414 0,-0.151755 -0.04796,-0.291844 -0.146484,-0.394532 -0.09542,-0.0981 -0.225825,-0.162207 -0.378906,-0.197265 -0.0474,-0.01103 -0.105315,-0.02251 -0.173829,-0.03516 -0.06467,-0.01213 -0.122247,-0.02326 -0.173828,-0.03516 -0.08625,-0.02019 -0.139659,-0.04867 -0.15625,-0.0625 -0.01143,-0.0093 -0.01953,-0.01476 -0.01953,-0.05859 0,-0.04048 0.0022,-0.04402 0.04297,-0.06641 0.04955,-0.02791 0.115749,-0.04492 0.205078,-0.04492 0.08584,0 0.175769,0.01515 0.269531,0.04883 v 0.002 c 0.09643,0.0337 0.174654,0.07374 0.236328,0.11914 l 0.03516,0.02539 h 0.191406 v -0.525391 l -0.07227,-0.03711 c -0.08301,-0.04273 -0.179803,-0.07507 -0.292969,-0.101563 h -0.002 c -0.114488,-0.02791 -0.230008,-0.04297 -0.34375,-0.04297 z m 0.251953,0.296875 c 0.01051,0.0023 0.02069,0.0013 0.03125,0.0039 0.0049,0.0011 0.0069,0.0027 0.01172,0.0039 -0.01433,-0.0046 -0.02862,-0.0038 -0.04297,-0.0078 z m 0.121094,0.03516 c 0.02633,0.0083 0.0521,0.01647 0.07422,0.02539 v 0.01172 c -0.02559,-0.01176 -0.04696,-0.02666 -0.07422,-0.03711 z m -0.75,0.03125 c -0.0851,0.06329 -0.15625,0.153973 -0.15625,0.259766 0,0.09791 0.03722,0.198553 0.113281,0.261718 4.33e-4,3.61e-4 0.0015,-3.58e-4 0.002,0 4.78e-4,3.95e-4 -4.82e-4,0.0016 0,0.002 0.0699,0.05753 0.156577,0.09017 0.263671,0.115235 h 0.002 c 0.05591,0.0129 0.115983,0.02443 0.183593,0.03711 h 0.002 c 0.06585,0.01215 0.118676,0.02355 0.160157,0.0332 0.117702,0.02696 0.196703,0.07026 0.248047,0.123047 0.04823,0.05027 0.07422,0.11051 0.07422,0.210938 0,0.121526 -0.04159,0.204213 -0.146484,0.285156 -0.007,0.0055 -0.02378,0.0046 -0.03125,0.0098 0.07699,-0.06723 0.144531,-0.152616 0.144531,-0.25586 0,-0.0936 -0.03254,-0.190402 -0.103515,-0.253906 -0.07416,-0.06635 -0.163829,-0.09413 -0.285157,-0.121094 -0.04402,-0.0099 -0.09975,-0.0206 -0.167968,-0.0332 -0.06349,-0.0119 -0.120794,-0.02557 -0.171875,-0.03906 -0.134825,-0.03577 -0.214942,-0.0846 -0.253907,-0.13086 v -0.002 c -0.0428,-0.05392 -0.06641,-0.114661 -0.06641,-0.203125 0,-0.05274 0.01074,-0.09923 0.03125,-0.144531 v -0.002 c 0.02107,-0.04382 0.05298,-0.08446 0.09961,-0.123047 0.0139,-0.01167 0.04122,-0.01867 0.05859,-0.0293 z m -0.197265,1.324219 c 0.04647,0.02381 0.0869,0.05558 0.136718,0.07422 -0.05293,-0.01663 -0.09552,-0.03347 -0.136718,-0.05078 z m 0.148437,0.07813 c 0.03786,0.01348 0.07377,0.01196 0.111328,0.02148 -0.02721,-0.0052 -0.0604,-0.0046 -0.08594,-0.01172 h -0.002 c -0.0097,-0.0028 -0.01406,-0.0069 -0.02344,-0.0098 z"
         id="path1586" />
      <path
         style="color:#000000;fill:#782121;stroke:none;-inkscape-stroke:none"
         d="m 56.910156,41.824219 c -0.122127,0 -0.236823,0.017 -0.341797,0.05078 -0.101248,0.03199 -0.190233,0.07704 -0.263672,0.138672 -0.07281,0.06025 -0.131042,0.13111 -0.169921,0.21289 v 0.002 c -0.03683,0.08023 -0.05469,0.168604 -0.05469,0.257812 0,0.138142 0.0405,0.268248 0.123047,0.371094 0.08962,0.10841 0.224789,0.176188 0.392578,0.220703 0.05847,0.01545 0.122598,0.03007 0.191406,0.04297 0.06614,0.01221 0.119545,0.02255 0.158203,0.03125 0.101916,0.02265 0.163581,0.05662 0.167969,0.06055 0.0076,0.0068 0.01367,0.01382 0.01367,0.05664 0,0.05299 -0.0041,0.059 -0.04102,0.08008 -0.04313,0.02465 -0.122395,0.04492 -0.236328,0.04492 -0.08557,0 -0.177556,-0.01725 -0.277343,-0.05273 h -0.002 c -0.100485,-0.03705 -0.190575,-0.08753 -0.271484,-0.148438 l -0.03516,-0.02539 h -0.191406 v 0.541015 l 0.07227,0.03516 c 0.08204,0.04102 0.179027,0.07871 0.291016,0.111328 0.120591,0.03363 0.252154,0.04883 0.390625,0.04883 0.246075,0 0.455691,-0.0556 0.615234,-0.179688 0.15762,-0.121627 0.248047,-0.299407 0.248047,-0.49414 0,-0.151755 -0.04796,-0.291844 -0.146484,-0.394532 h -0.002 c -0.09542,-0.0981 -0.223871,-0.162207 -0.376954,-0.197265 -0.0474,-0.01103 -0.105314,-0.02251 -0.173828,-0.03516 -0.06468,-0.01213 -0.122247,-0.02326 -0.173828,-0.03516 -0.08625,-0.02019 -0.139659,-0.04867 -0.15625,-0.0625 -0.01143,-0.0093 -0.01953,-0.01476 -0.01953,-0.05859 0,-0.04048 0.0022,-0.04402 0.04297,-0.06641 0.04955,-0.02791 0.115749,-0.04492 0.205078,-0.04492 0.08584,0 0.175769,0.01515 0.269531,0.04883 v 0.002 c 0.09643,0.0337 0.174654,0.07374 0.236328,0.11914 l 0.03516,0.02539 h 0.191407 v -0.525391 l -0.07227,-0.03711 c -0.08301,-0.04273 -0.179802,-0.07507 -0.292969,-0.101563 h -0.002 c -0.114488,-0.02791 -0.230008,-0.04297 -0.34375,-0.04297 z m 0.25586,0.296875 c 0.0086,0.0019 0.01672,0.0018 0.02539,0.0039 h 0.002 c 0.0049,0.0011 0.0069,0.0027 0.01172,0.0039 -0.01307,-0.0042 -0.02598,-0.0041 -0.03906,-0.0078 z m 0.117187,0.03516 c 0.02633,0.0083 0.0521,0.01647 0.07422,0.02539 v 0.01172 c -0.02559,-0.01176 -0.04696,-0.02666 -0.07422,-0.03711 z m -0.75,0.03125 c -0.0851,0.06329 -0.15625,0.153973 -0.15625,0.259766 0,0.09791 0.03722,0.198553 0.113281,0.261718 4.33e-4,3.61e-4 0.0015,-3.58e-4 0.002,0 4.79e-4,3.95e-4 -4.81e-4,0.0016 0,0.002 0.0699,0.05753 0.156578,0.09017 0.263672,0.115235 h 0.002 c 0.05591,0.0129 0.115984,0.02443 0.183594,0.03711 h 0.002 c 0.06585,0.01215 0.118677,0.02355 0.160157,0.0332 0.117702,0.02696 0.196703,0.07026 0.248046,0.123047 0.04824,0.05027 0.07227,0.11051 0.07227,0.210938 0,0.121526 -0.03963,0.204213 -0.144531,0.285156 -0.007,0.0055 -0.02378,0.0046 -0.03125,0.0098 0.07699,-0.06723 0.144531,-0.152616 0.144531,-0.25586 0,-0.0936 -0.03254,-0.190402 -0.103516,-0.253906 -0.07373,-0.06597 -0.164883,-0.09428 -0.285156,-0.121094 h -0.002 c -0.04378,-0.0098 -0.09856,-0.02074 -0.166016,-0.0332 -0.06348,-0.0119 -0.120793,-0.02557 -0.171875,-0.03906 -0.136067,-0.0361 -0.217319,-0.08619 -0.255859,-0.132813 -0.04279,-0.05392 -0.06445,-0.114665 -0.06445,-0.203125 0,-0.05274 0.01074,-0.09923 0.03125,-0.144531 v -0.002 c 0.02107,-0.04382 0.05298,-0.08446 0.09961,-0.123047 0.0139,-0.01167 0.04122,-0.01867 0.05859,-0.0293 z m -0.197266,1.324219 c 0.04628,0.02368 0.08712,0.05566 0.136719,0.07422 -0.05293,-0.01663 -0.09552,-0.03347 -0.136719,-0.05078 z m 0.148438,0.07813 c 0.03786,0.01348 0.07377,0.01196 0.111328,0.02148 -0.02721,-0.0052 -0.0604,-0.0046 -0.08594,-0.01172 h -0.002 c -0.0097,-0.0028 -0.01406,-0.0069 -0.02344,-0.0098 z"
         id="path1588" />
      <path
         style="color:#000000;fill:#782121;stroke:none;-inkscape-stroke:none"
         d="m 58.652344,41.818359 c -0.274531,0 -0.514433,0.0989 -0.683594,0.291016 -0.168618,0.191668 -0.25,0.451254 -0.25,0.755859 0,0.304606 0.08138,0.564192 0.25,0.75586 0.169267,0.19103 0.409249,0.289062 0.683594,0.289062 0.272527,0 0.510627,-0.09827 0.679687,-0.289062 0.169776,-0.191604 0.25,-0.451093 0.25,-0.75586 0,-0.304767 -0.08022,-0.564255 -0.25,-0.755859 -0.168955,-0.191884 -0.406972,-0.291016 -0.679687,-0.291016 z m -0.371094,0.419922 c -0.02904,0.02383 -0.07755,0.01498 -0.101563,0.04492 -0.114586,0.143235 -0.160156,0.340686 -0.160156,0.582031 0,0.23489 0.04697,0.43103 0.160156,0.576172 0.04605,0.05851 0.131884,0.05443 0.195313,0.08984 -0.06537,-0.03259 -0.157411,-0.02773 -0.208984,-0.08594 -0.118004,-0.134827 -0.181641,-0.321171 -0.181641,-0.580078 0,-0.2597 0.06294,-0.44515 0.181641,-0.580078 0.02842,-0.03227 0.08305,-0.0225 0.115234,-0.04687 z m 0.755859,0.0078 c 0.0264,0.02153 0.0718,0.01192 0.0957,0.03906 h 0.002 c 0.119612,0.134992 0.183593,0.320539 0.183593,0.580078 0,0.25954 -0.06398,0.445088 -0.183593,0.580078 -0.04818,0.05437 -0.133745,0.04811 -0.19336,0.08008 0.05701,-0.03404 0.135356,-0.02868 0.177735,-0.08203 0.115159,-0.144618 0.162109,-0.341128 0.162109,-0.578125 0,-0.241548 -0.04426,-0.43887 -0.160156,-0.582031 -0.01993,-0.02486 -0.06057,-0.01644 -0.08398,-0.03711 z m -0.384765,0.08789 c 0.125107,0 0.197787,0.03551 0.261718,0.115235 0.05981,0.07388 0.103516,0.209013 0.103516,0.416015 0,0.20122 -0.04286,0.33544 -0.105469,0.414063 -0.06428,0.08091 -0.136192,0.115234 -0.259765,0.115234 -0.125765,0 -0.199524,-0.03568 -0.263672,-0.117187 -0.06205,-0.08029 -0.103516,-0.213802 -0.103516,-0.41211 0,-0.207206 0.04252,-0.342209 0.101563,-0.416015 0.06361,-0.07933 0.138046,-0.115235 0.265625,-0.115235 z"
         id="path1590" />
      <path
         style="color:#000000;fill:#782121;stroke:none;-inkscape-stroke:none"
         d="m 60.773437,41.818359 c -0.120581,0 -0.238811,0.02504 -0.351562,0.07422 -0.03394,0.01481 -0.06468,0.04233 -0.09766,0.06055 v -0.08594 h -0.554688 v 1.996094 h 0.554688 v -1.351562 c 0.05639,-0.03888 0.112345,-0.07659 0.171875,-0.103516 0.07299,-0.03302 0.137492,-0.04687 0.195312,-0.04687 0.06517,0 0.110125,0.0085 0.134766,0.01953 l 0.002,0.002 h 0.002 c 0.02565,0.01092 0.0369,0.02098 0.04883,0.04102 v 0.002 l 0.002,0.002 c 0.0098,0.01546 0.02354,0.05304 0.03125,0.111328 0.0084,0.06262 0.01367,0.13065 0.01367,0.205079 v 1.11914 h 0.554688 v -0.132812 -1.123047 c 0,-0.232309 -0.05451,-0.430597 -0.179688,-0.574219 -0.125527,-0.144026 -0.313719,-0.214844 -0.527344,-0.214844 z m 0,0.265625 c 0.06879,0 0.09227,0.03745 0.140625,0.05273 -0.06334,-0.02469 -0.132886,-0.03793 -0.208984,-0.03906 0.02289,-0.0026 0.04504,-0.01367 0.06836,-0.01367 z m -0.740234,0.04687 h 0.02734 v 0.242188 0.09961 1.125 h -0.02734 z m 0.912109,0.01758 c 0.04958,0.02068 0.122516,0.01989 0.15625,0.05859 0.0712,0.08169 0.115235,0.208953 0.115235,0.400391 v 0.990234 h -0.02734 v -0.853515 c 0,-0.08474 -0.0035,-0.164362 -0.01367,-0.240235 -0.01077,-0.08138 -0.03133,-0.152243 -0.07031,-0.214844 l -0.002,-0.002 c -0.03712,-0.06121 -0.09354,-0.107906 -0.158204,-0.138672 z"
         id="path1592" />
    </g>
  </g>
</svg>
